{"title":"Coldplay - Midnight [Music Video] 1080p [Sbyky]","uid":9723518,"size":99339949,"categoryP":"video","categoryS":"music_videos","magnet":"?xt=urn:btih:da3f5637bdcbe85c13e60c40c650b06ec76f8116&amp;dn=Coldplay+-+Midnight+%5BMusic+Video%5D+1080p+%5BSbyky%5D&amp;tr=udp%3A%2F%2Ftracker.openbittorrent.com%3A80&amp;tr=udp%3A%2F%2Fopen.demonii.com%3A1337&amp;tr=udp%3A%2F%2Ftracker.coppersurfer.tk%3A6969&amp;tr=udp%3A%2F%2Fexodus.desync.com%3A6969","seeders":2,"leechers":1,"uploader":"Sbyky","files":1,"time":1394266832,"description":"\n\nGeneral\nComplete name                            : Coldplay - Midnight [Music Video] 1080p [Sbyky].MP4\nFormat                                   : MPEG-4\nFormat profile                           : Base Media\nCodec ID                                 : isom\nFile size                                : 94.7 MiB\nDuration                                 : 5mn 7s\nOverall bit rate mode                    : Variable\nOverall bit rate                         : 2 583 Kbps\nEncoded date                             : UTC 2014-02-28 08:27:53\nTagged date                              : UTC 2014-02-28 08:27:53\n\nVideo\nID                                       : 1\nFormat                                   : AVC\nFormat/Info                              : Advanced Video Codec\nFormat profile                           : &lt;a class=&quot;__cf_email__&quot; href=&quot;/cdn-cgi/l/email-protection&quot; data-cfemail=&quot;632b0a040b232f574d53&quot;&gt;[email&amp;#160;protected]&lt;/a&gt;&lt;script cf-hash='f9e31' type=&quot;text/javascript&quot;&gt;\n/* &lt;![CDATA[ */!function(){try{var t=&quot;currentScript&quot;in document?document.currentScript:function(){for(var t=document.getElementsByTagName(&quot;script&quot;),e=t.length;e--;)if(t[e].getAttribute(&quot;cf-hash&quot;))return t[e]}();if(t&amp;&amp;t.previousSibling){var e,r,n,i,c=t.previousSibling,a=c.getAttribute(&quot;data-cfemail&quot;);if(a){for(e=&quot;&quot;,r=parseInt(a.substr(0,2),16),n=2;a.length-n;n+=2)i=parseInt(a.substr(n,2),16)^r,e+=String.fromCharCode(i);e=document.createTextNode(e),c.parentNode.replaceChild(e,c)}}}catch(u){}}();/* ]]&gt; */&lt;/script&gt;\nFormat settings, CABAC                   : Yes\nFormat settings, ReFrames                : 3 frames\nCodec ID                                 : avc1\nCodec ID/Info                            : Advanced Video Coding\nDuration                                 : 5mn 7s\nDuration_LastFrame                       : -33ms\nBit rate                                 : 2 454 Kbps\nWidth                                    : 1 920 pixels\nHeight                                   : 1 080 pixels\nDisplay aspect ratio                     : 16:9\nFrame rate mode                          : Constant\nFrame rate                               : 29.970 fps\nColor space                              : YUV\nChroma subsampling                       : 4:2:0\nBit depth                                : 8 bits\nScan type                                : Progressive\nBits/(Pixel*Frame)                       : 0.039\nStream size                              : 90.0 MiB (95%)\nEncoded date                             : UTC 2014-02-28 08:27:53\nTagged date                              : UTC 2014-02-28 08:27:53\n\nAudio\nID                                       : 2\nFormat                                   : AAC\nFormat/Info                              : Advanced Audio Codec\nFormat profile                           : LC\nCodec ID                                 : 40\nDuration                                 : 5mn 7s\nBit rate mode                            : Variable\nBit rate                                 : 126 Kbps\nChannel(s)                               : 2 channels\nChannel positions                        : Front: L R\nSampling rate                            : 44.1 KHz\nCompression mode                         : Lossy\nStream size                              : 4.61 MiB (5%)\nEncoded date                             : UTC 2014-02-28 08:26:43\nTagged date                              : UTC 2014-02-28 08:26:43\n\nShared By Sbyky\n","torrent":{"xt":"urn:btih:da3f5637bdcbe85c13e60c40c650b06ec76f8116","amp;dn":"Coldplay+-+Midnight+%5BMusic+Video%5D+1080p+%5BSbyky%5D","amp;tr":["udp%3A%2F%2Ftracker.openbittorrent.com%3A80","udp%3A%2F%2Fopen.demonii.com%3A1337","udp%3A%2F%2Ftracker.coppersurfer.tk%3A6969","udp%3A%2F%2Fexodus.desync.com%3A6969"],"infoHash":"da3f5637bdcbe85c13e60c40c650b06ec76f8116","infoHashBuffer":{"type":"Buffer","data":[218,63,86,55,189,203,232,92,19,230,12,64,198,80,176,110,199,111,129,22]},"announce":[],"urlList":[]}}